<?xml version="1.0" encoding="UTF-8"?> <svg xmlns="http://www.w3.org/2000/svg" id="Layer_1" data-name="Layer 1" viewBox="0 0 300 300"> <defs> <style> .cls-1 { fill: #4ca045; } .cls-1, .cls-2 { stroke: #545554; stroke-miterlimit: 10; stroke-width: 3px; } .cls-2 { fill: #e6e6e6; } </style> </defs> <path class="cls-2" d="m235,157.12c0,46.94-38.06,84.99-85,84.99s-84.99-38.05-84.99-84.99c0-16.15,4.5-31.24,12.32-44.11l48.63,24.16s26.65-33.2,28.56-31.67c1.9,1.53,55.32,21.37,55.32,21.37l13.21-13.21c7.6,12.72,11.95,27.57,11.95,43.46Z"></path> <path class="cls-1" d="m221.32,99.42l-13.21,13.21s-53.42-19.84-55.32-21.37c-1.91-1.53-28.56,31.67-28.56,31.67l-48.63-24.16c14.92-24.51,41.88-40.89,72.67-40.89s58.24,16.66,73.05,41.54Z"></path> </svg> 